<svg xmlns="http://www.w3.org/2000/svg" xmlns:xlink="http://www.w3.org/1999/xlink" width="200" zoomAndPan="magnify" viewBox="0 0 150 149.999998" height="200" preserveAspectRatio="xMidYMid meet" version="1.0"><defs><clipPath id="a8ad203d6e"><path d="M 52 0.546875 L 150 0.546875 L 150 98 L 52 98 Z M 52 0.546875 " clip-rule="nonzero"/></clipPath><clipPath id="b2ab39c45b"><path d="M 0 52 L 98 52 L 98 149.796875 L 0 149.796875 Z M 0 52 " clip-rule="nonzero"/></clipPath></defs><g clip-path="url(#a8ad203d6e)"><path fill="#67dcff" d="M 149.953125 75.316406 C 149.953125 87.722656 139.898438 97.761719 127.476562 97.761719 L 81.441406 97.761719 C 65.527344 97.761719 52.605469 84.859375 52.605469 68.96875 L 52.605469 22.992188 C 52.605469 10.585938 62.660156 0.546875 75.082031 0.546875 C 87.507812 0.546875 97.5625 10.585938 97.5625 22.992188 L 97.5625 52.867188 L 127.476562 52.867188 C 139.898438 52.867188 149.953125 62.949219 149.953125 75.316406 Z M 149.953125 75.316406 " fill-opacity="1" fill-rule="nonzero"/></g><g clip-path="url(#b2ab39c45b)"><path fill="#587dff" d="M 0.046875 75.023438 C 0.046875 62.617188 10.101562 52.578125 22.523438 52.578125 L 68.558594 52.578125 C 84.472656 52.578125 97.394531 65.480469 97.394531 81.375 L 97.394531 127.347656 C 97.394531 139.753906 87.339844 149.796875 74.917969 149.796875 C 62.492188 149.796875 52.4375 139.753906 52.4375 127.347656 L 52.4375 97.472656 L 22.523438 97.472656 C 10.101562 97.472656 0.046875 87.429688 0.046875 75.023438 Z M 0.046875 75.023438 " fill-opacity="1" fill-rule="nonzero"/></g><path fill="#2720ff" d="M 97.394531 81.375 L 97.394531 97.761719 L 81.441406 97.761719 C 65.527344 97.761719 52.605469 84.859375 52.605469 68.96875 L 52.605469 52.578125 L 68.558594 52.578125 C 84.472656 52.578125 97.394531 65.480469 97.394531 81.375 Z M 97.394531 81.375 " fill-opacity="1" fill-rule="nonzero"/></svg>